<?xml version="1.0" encoding="utf-8"?>
<!-- Generator: Adobe Illustrator 26.3.1, SVG Export Plug-In . SVG Version: 6.00 Build 0)  -->
<svg version="1.1" id="Capa_1" xmlns="http://www.w3.org/2000/svg" xmlns:xlink="http://www.w3.org/1999/xlink" x="0px" y="0px"
	 viewBox="0 0 360 84" style="enable-background:new 0 0 360 84;" xml:space="preserve">
<style type="text/css">
	.st0{opacity:0.25;enable-background:new    ;}
	.st1{fill:#F8FEFF;}
	.st2{opacity:0.5;enable-background:new    ;}
	.st3{fill:#FFFFFF;}
	.st4{enable-background:new    ;}
</style>
<g>
	<g id="Trazado_1233" class="st0">
		<path class="st1" d="M0,42.3c0,0.7,0,1.3,0,2h50.9l0-1.9l0-1.9H0C0,41.1,0,41.7,0,42.3z"/>
	</g>
	<g id="Trazado_1234" class="st2">
		<path class="st1" d="M85,23.7v4H72.4l-10.1,9.9l-11.5,0.9l0,2.1l0,1.9l0,1.9l0,2.4L62.4,48l10.5,9.8h12.5v3.5l5.6-0.1V23.6
			L85,23.7z"/>
	</g>
	<g id="Grupo_655" transform="translate(661.703)">
		<g id="Trazado_1235">
			<path class="st3" d="M-391.3,33.1c-1.1,0-1.5,0.9-1.5,2v0.1c0,1.1,0.4,1.6,1.5,1.6h14.4v-3.7H-391.3z"/>
		</g>
		<g id="Trazado_1236">
			<path class="st3" d="M-391.3,48c-1.1,0-1.5,0.5-1.5,1.6v0.1c0,1.1,0.4,2.1,1.5,2.1h14.4V48L-391.3,48z"/>
		</g>
		<g id="Trazado_1237" class="st0">
			<path class="st3" d="M-301.7,42.7c0-0.7,0-1.4,0-2.1h-33.5l0,3.7h33.5C-301.7,43.7-301.7,43.2-301.7,42.7z"/>
		</g>
		<g id="Trazado_1238" class="st2">
			<path class="st3" d="M-347.1,37.5l-10.5-9.9h-13v-4l-6.3-0.1v37.6l5.8,0.1v-3.5h13l10.9-9.8l11.9-1.3l0-2.4l0-1.9l0-1.9l0-2.1
				L-347.1,37.5z"/>
		</g>
	</g>
	<g class="st4">
		<path class="st3" d="M122,55.8v-8.6l19.4-26.6h11v26.2h5.1v8.9h-5.1v7.8H142v-7.8H122z M142.8,32.5l-10.4,14.3h10.4V32.5z"/>
		<path class="st3" d="M162.2,41.9c0-6.6,1.3-11.8,4-15.7c2.7-3.9,7-5.8,12.8-5.8c5.8,0,10.1,1.9,12.8,5.8c2.7,3.9,4,9.1,4,15.7
			c0,6.6-1.4,11.9-4,15.8c-2.7,3.9-7,5.8-12.8,5.8c-5.9,0-10.2-1.9-12.8-5.8C163.5,53.8,162.2,48.6,162.2,41.9z M185.7,41.9
			c0-3.8-0.5-6.7-1.3-8.7c-0.9-2-2.7-3-5.3-3c-2.7,0-4.5,1-5.4,3.1c-0.9,2-1.4,4.9-1.4,8.7c0,3.8,0.5,6.7,1.4,8.8
			c0.9,2.1,2.7,3.1,5.4,3.1c2.6,0,4.4-1,5.3-3.1C185.2,48.6,185.7,45.7,185.7,41.9z"/>
		<path class="st3" d="M200.9,55.8v-8.6l19.4-26.6h11v26.2h5.1v8.9h-5.1v7.8H221v-7.8H200.9z M221.8,32.5l-10.4,14.3h10.4V32.5z"/>
	</g>
</g>
</svg>
