<?xml version="1.0" encoding="utf-8"?>
<!-- Generator: Adobe Illustrator 26.3.1, SVG Export Plug-In . SVG Version: 6.00 Build 0)  -->
<svg version="1.1" id="Capa_1" xmlns="http://www.w3.org/2000/svg" xmlns:xlink="http://www.w3.org/1999/xlink" x="0px" y="0px"
	 viewBox="0 0 1920 140" style="enable-background:new 0 0 1920 140;" xml:space="preserve">
<style type="text/css">
	.st0{enable-background:new    ;}
	.st1{fill:#FFFFFF;}
	.st2{opacity:0.25;enable-background:new    ;}
	.st3{fill:#F8FEFF;}
	.st4{opacity:0.5;enable-background:new    ;}
</style>
<g id="Grupo_694" transform="translate(0 -380)">
	<g class="st0">
		<path class="st1" d="M865,472v-14.3l32.3-44.3h18.4v43.7h8.5V472h-8.5v13h-17.3v-13H865z M899.8,433.2l-17.4,23.9h17.4V433.2z"/>
		<path class="st1" d="M932,448.9c0-11,2.2-19.7,6.7-26.2c4.5-6.4,11.6-9.7,21.4-9.7c9.7,0,16.8,3.2,21.3,9.7
			c4.5,6.4,6.8,15.2,6.8,26.2c0,11.1-2.2,19.8-6.8,26.3c-4.5,6.5-11.6,9.7-21.3,9.7c-9.8,0-16.9-3.2-21.4-9.7
			C934.2,468.7,932,460,932,448.9z M971.2,448.9c0-6.3-0.8-11.2-2.2-14.6c-1.5-3.4-4.4-5-8.8-5c-4.5,0-7.5,1.7-9,5.1
			c-1.5,3.4-2.3,8.2-2.3,14.5c0,6.3,0.8,11.2,2.3,14.6c1.5,3.4,4.5,5.2,9,5.2c4.4,0,7.3-1.7,8.8-5.2
			C970.4,460.1,971.2,455.2,971.2,448.9z"/>
		<path class="st1" d="M996.6,472v-14.3l32.3-44.3h18.4v43.7h8.5V472h-8.5v13H1030v-13H996.6z M1031.4,433.2l-17.4,23.9h17.4V433.2z
			"/>
	</g>
	<g id="Grupo_656" transform="translate(965.798 154.928)">
		<g id="Grupo_654" transform="translate(-965.798 263.072)">
			<g id="Trazado_1233" class="st2">
				<path class="st3" d="M743.6,31.6l0-3.1H0v6.3h743.6L743.6,31.6z"/>
			</g>
			<g id="Trazado_1234" class="st4">
				<path class="st3" d="M800.7,0.1v6.6h-21l-17,16.7l-19.2,1.4l0,3.6l0,3.1l0,3.1l0.1,4.1l19.3,2.1l17.6,16.4h21v5.9l9.3-0.1V0
					L800.7,0.1z"/>
			</g>
		</g>
		<g id="Grupo_655" transform="translate(143.34 263.072)">
			<g id="Trazado_1235">
				<path class="st1" d="M2.4,15.9c-1.9,0-2.4,1.6-2.4,3.4v0.2c0,1.9,0.6,2.6,2.4,2.6h24.1v-6.3L2.4,15.9z"/>
			</g>
			<g id="Trazado_1236">
				<path class="st1" d="M2.4,41C0.6,41,0,41.8,0,43.6v0.2c0,1.9,0.6,3.4,2.4,3.4h24.1V41H2.4z"/>
			</g>
			<g id="Trazado_1237" class="st2">
				<path class="st1" d="M96.4,28.4l0,3.1l0,3.1h714.5v-6.3L96.4,28.4z"/>
			</g>
			<g id="Trazado_1238" class="st4">
				<path class="st1" d="M76.5,23.4L58.9,6.8H37.1V0.1L26.5,0v63.1l9.7,0.1v-5.9H58L76.3,41l20-2.1l0.1-4.1l0-3.1l0-3.1l0-3.6
					L76.5,23.4z"/>
			</g>
		</g>
	</g>
</g>
</svg>
